<svg xmlns="http://www.w3.org/2000/svg" xmlns:xlink="http://www.w3.org/1999/xlink" width="12.969" height="17" viewBox="0 0 12.969 17">
  <metadata><?xpacket begin="﻿" id="W5M0MpCehiHzreSzNTczkc9d"?>
<x:xmpmeta xmlns:x="adobe:ns:meta/" x:xmptk="Adobe XMP Core 5.6-c138 79.159824, 2016/09/14-01:09:01        ">
   <rdf:RDF xmlns:rdf="http://www.w3.org/1999/02/22-rdf-syntax-ns#">
      <rdf:Description rdf:about=""/>
   </rdf:RDF>
</x:xmpmeta>
                                                                                                    
                                                                                                    
                                                                                                    
                                                                                                    
                                                                                                    
                                                                                                    
                                                                                                    
                                                                                                    
                                                                                                    
                                                                                                    
                                                                                                    
                                                                                                    
                                                                                                    
                                                                                                    
                                                                                                    
                                                                                                    
                                                                                                    
                                                                                                    
                                                                                                    
                                                                                                    
                           
<?xpacket end="w"?></metadata>
<defs>
    <style>
      .cls-1 {
        fill: #4e6790;
        fill-rule: evenodd;
        filter: url(#filter);
      }
    </style>
    <filter id="filter" x="37" y="343" width="12.969" height="17" filterUnits="userSpaceOnUse">
      <feFlood result="flood" flood-color="#fff" flood-opacity="0.5"/>
      <feComposite result="composite" operator="in" in2="SourceGraphic"/>
      <feBlend result="blend" in2="SourceGraphic"/>
    </filter>
  </defs>
  <path id="Dashboard" class="cls-1" d="M49.426,360H37.54a0.536,0.536,0,0,1-.54-0.531V345.656a1.608,1.608,0,0,1,1.621-1.594h1.621V343.8a0.81,0.81,0,0,1,1.621,0v0.265H45.1V343.8a0.811,0.811,0,0,1,1.621,0v0.265h1.62a1.608,1.608,0,0,1,1.621,1.594v13.813A0.536,0.536,0,0,1,49.426,360Zm-1.081-14.344H46.724v1.063H45.1v-1.063H41.862v1.063H40.241v-1.063H38.621v2.125h9.724v-2.125Zm0,3.719H38.621v9.031h9.724v-9.031Zm-2.161,3.719h-5.4V351.5h5.4v1.594Zm0,3.187h-5.4v-1.594h5.4v1.594Z" transform="translate(-37 -343)"/>
</svg>
