<svg xmlns="http://www.w3.org/2000/svg" width="18.03" height="20" viewBox="0 0 18.03 20">
  <metadata><?xpacket begin="﻿" id="W5M0MpCehiHzreSzNTczkc9d"?>
<x:xmpmeta xmlns:x="adobe:ns:meta/" x:xmptk="Adobe XMP Core 5.6-c138 79.159824, 2016/09/14-01:09:01        ">
   <rdf:RDF xmlns:rdf="http://www.w3.org/1999/02/22-rdf-syntax-ns#">
      <rdf:Description rdf:about=""/>
   </rdf:RDF>
</x:xmpmeta>
                                                                                                    
                                                                                                    
                                                                                                    
                                                                                                    
                                                                                                    
                                                                                                    
                                                                                                    
                                                                                                    
                                                                                                    
                                                                                                    
                                                                                                    
                                                                                                    
                                                                                                    
                                                                                                    
                                                                                                    
                                                                                                    
                                                                                                    
                                                                                                    
                                                                                                    
                                                                                                    
                           
<?xpacket end="w"?></metadata>
<defs>
    <style>
      .cls-1 {
        fill: #83a2bd;
        fill-rule: evenodd;
      }
    </style>
  </defs>
  <path id="Bell" class="cls-1" d="M1622.92,52.933c-1.24-1.041-2.12-3.808-2.12-7.058a5.637,5.637,0,0,0-3.9-5.31,1.936,1.936,0,0,0-3.8,0,5.641,5.641,0,0,0-3.89,5.31c0,3.249-.89,6.016-2.13,7.058a3.035,3.035,0,0,0-1.09,2.317,1.9,1.9,0,0,0,1.93,1.875h5.15a1.931,1.931,0,0,0,3.86,0h5.15a1.909,1.909,0,0,0,1.94-1.875A3.012,3.012,0,0,0,1622.92,52.933Zm-15,2.317a1.2,1.2,0,0,1,.42-0.9c1.73-1.448,2.8-4.7,2.8-8.476a3.867,3.867,0,0,1,7.73,0c0,3.781,1.07,7.029,2.79,8.476a1.166,1.166,0,0,1,.42.9h-14.16Z" transform="translate(-1606 -39)"/>
</svg>
