<?xml version="1.0" encoding="UTF-8"?>
<svg width="16px" height="13px" viewBox="0 0 16 13" version="1.1" xmlns="http://www.w3.org/2000/svg" xmlns:xlink="http://www.w3.org/1999/xlink">
    <!-- Generator: Sketch 52.2 (67145) - http://www.bohemiancoding.com/sketch -->
    <title>icon--email</title>
    <desc>Created with Sketch.</desc>
    <g id="Page-1" stroke="none" stroke-width="1" fill="none" fill-rule="evenodd">
        <g id="icon--email" transform="translate(0.000000, 1.000000)" stroke="currentColor">
            <path d="M3,0.5 C1.61928813,0.5 0.5,1.61928813 0.5,3 L0.5,9 C0.5,10.3807119 1.61928813,11.5 3,11.5 L13,11.5 C14.3807119,11.5 15.5,10.3807119 15.5,9 L15.5,3 C15.5,1.61928813 14.3807119,0.5 13,0.5 L3,0.5 Z" id="Rectangle-Copy"></path>
            <polyline id="Path-2" points="0.752837421 10.7371234 6.36657316 6.53812521 6.36657316 6.47424686 8.19523184 8.20512781 9.80264156 6.71540399 15.1250461 10.9736436"></polyline>
            <path d="M1.87393496,0.806674335 L1.44695255,1.28104496 L8.203189,8.29531887 L14.9120434,1.6495005 C15.0537195,1.87058034 14.9994266,1.74776182 14.7491648,1.28104496 C14.6599493,1.11466587 14.2144,0.616137674 12.9911111,0.526644218 C11.099494,0.388257172 7.81335728,0.688680466 3.1355361,0.526644218 C2.61359724,0.508564644 2.19306353,0.601908016 1.87393496,0.806674335 Z" id="Path"></path>
        </g>
    </g>
</svg>