<?xml version="1.0" encoding="UTF-8"?>
<svg width="25px" height="25px" viewBox="0 0 25 25" version="1.1" xmlns="http://www.w3.org/2000/svg" xmlns:xlink="http://www.w3.org/1999/xlink">
    <!-- Generator: Sketch 52.2 (67145) - http://www.bohemiancoding.com/sketch -->
    <title>Twitter</title>
    <desc>Created with Sketch.</desc>
    <g id="Project-Page" stroke="none" stroke-width="1" fill="none" fill-rule="evenodd">
        <g id="Project-Page-/-Main" transform="translate(-1019.000000, -726.000000)">
            <g id="Block-#1-(-Head-)" transform="translate(453.000000, 257.000000)">
                <g id="Left-Block" transform="translate(48.000000, 173.000000)">
                    <g id="Info-&amp;-Social" transform="translate(0.000000, 270.000000)">
                        <g id="Social" transform="translate(2.000000, 24.000000)">
                            <g id="Twitter" transform="translate(516.000000, 2.000000)">
                                <path d="M10.4595,17 C14.61035,17 16.88075,13.5370549 16.88075,10.534322 C16.88075,10.4357447 16.88075,10.3377211 16.87415,10.2402513 C17.3158,9.91904422 17.69695,9.52030433 18,9.06396869 C17.5886,9.24783208 17.15135,9.36856166 16.7042,9.42172697 C17.175,9.13762481 17.52755,8.69125766 17.6964,8.16458873 C17.2531,8.42930771 16.76855,8.61594012 16.2631,8.7161789 C15.4084,7.80129239 13.97895,7.75698796 13.0698,8.61760154 C12.48405,9.17251455 12.2349,9.99989981 12.41695,10.7890725 C10.6025,10.6971408 8.9118,9.83431199 7.7656,8.41490877 C7.16665,9.45329388 7.473,10.7813192 8.46465,11.4481009 C8.1055,11.4375786 7.75405,11.3401089 7.44,11.1639987 L7.44,11.1927966 C7.44055,12.2743786 8.1979,13.2058792 9.2506,13.4202019 C8.9184,13.5115798 8.5697,13.5248711 8.232,13.4589683 C8.52735,14.3849309 9.3749,15.0190381 10.34015,15.0373137 C9.541,15.6697594 8.55375,16.0131188 7.53735,16.0120112 C7.35805,16.0114574 7.17875,16.0009351 7,15.9793367 C8.03235,16.6461184 9.233,17 10.4595,16.9983386" id="twitter-[#154]" fill="currentColor"></path>
                                <path d="M7,0.5 C3.41014913,0.5 0.5,3.41014913 0.5,7 L0.5,18 C0.5,21.5898509 3.41014913,24.5 7,24.5 L18,24.5 C21.5898509,24.5 24.5,21.5898509 24.5,18 L24.5,7 C24.5,3.41014913 21.5898509,0.5 18,0.5 L7,0.5 Z" id="Rectangle-5-Copy-3" stroke="currentColor"></path>
                            </g>
                        </g>
                    </g>
                </g>
            </g>
        </g>
    </g>
</svg>