<?xml version="1.0" encoding="UTF-8"?>
<svg width="15px" height="18px" viewBox="0 0 15 18" version="1.1" xmlns="http://www.w3.org/2000/svg" xmlns:xlink="http://www.w3.org/1999/xlink">
    <!-- Generator: Sketch 52.2 (67145) - http://www.bohemiancoding.com/sketch -->
    <title>icon--sale</title>
    <desc>Created with Sketch.</desc>
    <g id="Page-1" stroke="none" stroke-width="1" fill="none" fill-rule="evenodd">
        <g id="icon--sale" transform="translate(1.000000, 1.000000)" stroke="currentColor" stroke-width="1.3">
            <path d="M4.79674759,0.519565 C4.05116318,0.519565 3.44674759,1.12398059 3.44674759,1.869565 L3.44674759,4.97329757 C4.05116318,4.97329757 4.05116318,4.97329757 4.79674759,4.97329757 L8.19512158,4.97329757 C8.94070599,4.97329757 8.94070599,4.97329757 9.54512158,4.97329757 L9.54512158,1.869565 C9.54512158,1.12398059 8.94070599,0.519565 8.19512158,0.519565 L4.79674759,0.519565 Z" id="Rectangle-9"></path>
            <path d="M1.837398,4.95434761 C1.09181359,4.95434761 0.487398,5.5587632 0.487398,6.30434761 L0.487398,14.1304346 C0.487398,14.876019 1.09181359,15.4804346 1.837398,15.4804346 L11.1544712,15.4804346 C11.9000556,15.4804346 12.5044712,14.876019 12.5044712,14.1304346 L12.5044712,6.30434761 C12.5044712,5.5587632 11.9000556,4.95434761 11.1544712,4.95434761 L1.837398,4.95434761 Z" id="Rectangle-7"></path>
        </g>
    </g>
</svg>