<?xml version="1.0" encoding="UTF-8"?>
<svg width="35px" height="34px" viewBox="0 0 35 34" version="1.1" xmlns="http://www.w3.org/2000/svg" xmlns:xlink="http://www.w3.org/1999/xlink">
    <!-- Generator: Sketch 52.2 (67145) - http://www.bohemiancoding.com/sketch -->
    <title>Google +</title>
    <desc>Created with Sketch.</desc>
    <g id="Project-Page" stroke="none" stroke-width="1" fill="none" fill-rule="evenodd">
        <g id="PR_step_2-/-General_info" transform="translate(-1285.000000, -1949.000000)">
            <g id="Base_block" transform="translate(379.000000, 148.000000)">
                <g id="Social" transform="translate(152.000000, 1800.000000)">
                    <g transform="translate(294.000000, 1.000000)" id="Google-+">
                        <g transform="translate(460.000000, 0.000000)">
                            <g transform="translate(0.666667, 0.000000)">
                                <path d="M24.8661524,16.0028987 L17.6584737,16.0028987 C17.6584737,16.7524768 17.6584737,18.2516329 17.653879,19.0012109 L21.8305342,19.0012109 C21.6704827,19.7507889 21.1030274,20.8001982 20.3012382,21.3286507 C20.3004724,21.3279011 20.2997066,21.3331482 20.298175,21.3323986 C19.232186,22.0362524 17.8254174,22.1959125 16.7808707,21.9860306 C15.1435973,21.6607138 13.8478693,20.4733822 13.3217669,18.9652312 C13.3248301,18.9629824 13.3271275,18.9419942 13.3294249,18.9404951 C13.0001323,18.0050217 13.0001323,16.7524768 13.3294249,16.0028987 L13.3286591,16.0028987 C13.7529105,14.6251743 15.0876942,13.3681319 16.7272649,13.0240756 C18.0459669,12.744483 19.5339099,13.0473125 20.6282334,14.0712361 C20.7737348,13.9288163 22.6422788,12.1043434 22.7824196,11.9559269 C19.0438,8.57008291 13.0575671,9.76116241 10.8176117,14.1334511 L10.8168459,14.1334511 C10.8168459,14.1334511 10.8176117,14.1334511 10.8130169,14.1416965 L10.8130169,14.1416965 C9.70490903,16.2892376 9.75085683,18.819813 10.8206748,20.8646619 C10.8176117,20.8669106 10.8153143,20.8684098 10.8130169,20.8706585 C11.7825155,22.7520994 13.5469112,24.1950371 15.6727628,24.7444778 C17.9310974,25.3366445 20.8051324,24.9318723 22.7303454,23.1906026 C22.7311112,23.1913521 22.731877,23.1921017 22.7326428,23.1928513 C24.3637898,21.7236783 25.3792362,19.2208373 24.8661524,16.0028987" id="google-[#178]" fill="currentColor"></path>
                                <rect id="Rectangle-5-Copy-2" stroke="currentColor" x="0.5" y="0.5" width="33" height="33" rx="7"></rect>
                            </g>
                        </g>
                    </g>
                </g>
            </g>
        </g>
    </g>
</svg>