<svg xmlns="http://www.w3.org/2000/svg" width="12.44" height="11.41" viewBox="0 0 12.44 11.41">
  <title>Photoins</title>
  <path d="M2.46,3.34A1.26,1.26,0,0,0,1.2,4.6v6a1.26,1.26,0,0,0,1.26,1.26h9.07a1.26,1.26,0,0,0,1.26-1.26v-6a1.26,1.26,0,0,0-1.26-1.26H2.46Z" transform="translate(-0.78 -0.85)" fill="#fff"/>
  <path d="M11.54,12.26H2.46A1.68,1.68,0,0,1,.78,10.58v-6A1.68,1.68,0,0,1,2.46,2.92h9.07A1.68,1.68,0,0,1,13.22,4.6v6A1.68,1.68,0,0,1,11.54,12.26ZM2.46,3.76a0.84,0.84,0,0,0-.84.84v6a0.84,0.84,0,0,0,.84.84h9.07a0.84,0.84,0,0,0,.84-0.84v-6a0.84,0.84,0,0,0-.84-0.84H2.46Z" transform="translate(-0.78 -0.85)" fill="#fff"/>
  <path d="M7,10.6a2.92,2.92,0,0,1-2.81-3A2.92,2.92,0,0,1,7,4.58a2.92,2.92,0,0,1,2.81,3A2.92,2.92,0,0,1,7,10.6ZM7,5.42A2.08,2.08,0,0,0,5,7.59,2.08,2.08,0,0,0,7,9.76,2.08,2.08,0,0,0,9,7.59,2.08,2.08,0,0,0,7,5.42Z" transform="translate(-0.78 -0.85)" fill="#2a2550"/>
  <path d="M5.45,1.27A0.42,0.42,0,0,0,5,1.69V3.12a0.42,0.42,0,0,0,.42.42h3.1A0.42,0.42,0,0,0,9,3.12V1.69a0.42,0.42,0,0,0-.42-0.42H5.45Z" transform="translate(-0.78 -0.85)" fill="#fff"/>
  <path d="M8.55,4H5.45a0.84,0.84,0,0,1-.84-0.84V1.69A0.84,0.84,0,0,1,5.45.85h3.1a0.84,0.84,0,0,1,.84.84V3.12A0.84,0.84,0,0,1,8.55,4ZM5.45,1.69V3.12h3.1V1.69H5.45Z" transform="translate(-0.78 -0.85)" fill="#fff"/>
</svg>
