<?xml version="1.0" encoding="UTF-8"?>
<svg width="15px" height="15px" viewBox="0 0 15 15" version="1.1" xmlns="http://www.w3.org/2000/svg" xmlns:xlink="http://www.w3.org/1999/xlink">
    <!-- Generator: Sketch 52.2 (67145) - http://www.bohemiancoding.com/sketch -->
    <title>url [#1424] copy 5</title>
    <desc>Created with Sketch.</desc>
    <g id="Project-Page" stroke="none" stroke-width="1" fill="none" fill-rule="evenodd">
        <g id="PR_step_4-/-Team" transform="translate(-774.000000, -1083.000000)" fill="#75A3BF">
            <g id="Base_block" transform="translate(382.000000, 131.000000)">
                <g id="Team">
                    <g id="My-Team" transform="translate(392.000000, 773.000000)">
                        <g id="#1">
                            <path d="M2.42865049,185.711491 C1.08563092,184.36891 1.25331695,182.080247 2.93017718,180.973422 C4.14992071,180.16818 5.78849646,180.410059 6.82217743,181.443402 L7.30149912,181.922567 C7.60088375,182.221853 8.08556527,182.221853 8.38418422,181.922567 C8.68356885,181.624045 8.68356885,181.139522 8.38418422,180.840236 L7.97913442,180.435318 C6.20043747,178.657203 3.27856595,178.476559 1.44703642,180.200328 C-0.44804535,181.984567 -0.481735692,184.967484 1.34596539,186.793822 L1.88730794,187.334987 C2.18592688,187.634274 2.67137409,187.634274 2.96999304,187.334987 C3.26937767,187.036466 3.26937767,186.551943 2.96999304,186.252656 L2.42865049,185.711491 Z M13.5548861,186.009246 L13.1643844,185.618872 C12.8649998,185.319586 12.3803183,185.319586 12.0816993,185.618872 C11.7823147,185.917394 11.7823147,186.401917 12.0816993,186.701203 L12.561021,187.180368 C13.594702,188.213711 13.8358942,189.851751 13.0311544,191.071096 C11.9239672,192.747408 9.63378965,192.914273 8.29153577,191.572458 L7.75019322,191.031293 C7.45080859,190.732006 6.96612707,190.732006 6.66750813,191.031293 C6.36812349,191.329814 6.36812349,191.814337 6.66750813,192.113624 L7.20885068,192.654789 C9.03119193,194.476535 12.0043647,194.448213 13.7899528,192.568295 C15.5303653,190.736599 15.3420056,187.795782 13.5548861,186.009246 L13.5548861,186.009246 Z M10.456906,190.490127 L3.51133559,183.546829 C3.21271664,183.247542 3.21271664,182.763019 3.51133559,182.463732 C3.81072022,182.165211 4.29540174,182.165211 4.59402068,182.463732 L11.5403568,189.407031 C11.8389757,189.706318 11.8389757,190.190841 11.5403568,190.490127 C11.2409721,190.788649 10.7562906,190.788649 10.456906,190.490127 L10.456906,190.490127 Z" id="url-[#1424]-copy-5"></path>
                        </g>
                    </g>
                </g>
            </g>
        </g>
    </g>
</svg>