<?xml version="1.0" encoding="UTF-8"?>
<svg width="15px" height="15px" viewBox="0 0 15 15" version="1.1" xmlns="http://www.w3.org/2000/svg" xmlns:xlink="http://www.w3.org/1999/xlink">
    <!-- Generator: Sketch 52.2 (67145) - http://www.bohemiancoding.com/sketch -->
    <title>file_pdf [#1754]</title>
    <desc>Created with Sketch.</desc>
    <g id="Project-Page" stroke="none" stroke-width="1" fill="none" fill-rule="evenodd">
        <g id="My_Profile-/-IF-status-ARBITER" transform="translate(-761.000000, -3025.000000)" fill="#75A3BF">
            <g id="Profile-Copy" transform="translate(452.000000, 165.000000)">
                <g id="Block-#5-Add" transform="translate(0.000000, 745.000000)">
                    <g id="Add" transform="translate(53.000000, 2052.000000)">
                        <g id="Attachments-#1" transform="translate(26.000000, 56.000000)">
                            <path d="M244.7855,11.611 L240.69425,7.27225 C240.5525,7.123 240.35225,7 240.14675,7 L231.48425,7 C230.6555,7 230,7.75 230,8.578 L230,13.828 C230,14.242 230.32775,14.5 230.74175,14.5 L230.7455,14.5 C231.16025,14.5 231.5,14.242 231.5,13.828 L231.5,9.328 C231.5,8.914 231.82025,8.5 232.23425,8.5 L239,8.5 L239,11.578 C239,12.40675 239.6555,13 240.48425,13 L243.5,13 L243.5,13.828 C243.5,14.242 243.82775,14.5 244.24175,14.5 L244.2455,14.5 C244.66025,14.5 245,14.242 245,13.828 L245,12.12775 C245,11.935 244.91825,11.7505 244.7855,11.611 L244.7855,11.611 Z M232.98425,18.328 C232.98425,17.914 232.64825,17.578 232.23425,17.578 L231.48425,17.578 L231.48425,19.078 L232.23425,19.078 C232.64825,19.078 232.98425,18.742 232.98425,18.328 L232.98425,18.328 Z M234.48125,18.1285 C234.54875,19.426 233.51675,20.5 232.23425,20.5 L231.5,20.5 L231.5,21.328 C231.5,21.742 231.16025,22 230.7455,22 L230.74175,22 C230.32775,22 230,21.742 230,21.328 L230,16.828 C230,16.414 230.32025,16 230.73425,16 L232.10675,16 C233.3255,16 234.4175,16.912 234.48125,18.1285 L234.48125,18.1285 Z M238.25,18.328 C238.25,17.914 237.89825,17.5 237.48425,17.5 L236.75,17.5 L236.75,20.5 L237.48425,20.5 C237.89825,20.5 238.25,20.242 238.25,19.828 L238.25,18.328 Z M239.75,18.25 L239.75,19.75 C239.75,20.9875 238.7375,22 237.5,22 L235.92125,22 C235.55,22 235.25,21.69925 235.25,21.328 L235.25,16.73425 C235.25,16.3285 235.5785,16 235.98425,16 L237.5,16 C238.7375,16 239.75,17.0125 239.75,18.25 L239.75,18.25 Z M245,16.7695 L245,16.789 C245,17.203 244.64825,17.5 244.23425,17.5 L242,17.5 L242,19 L244.23425,19 C244.64825,19 245,19.35475 245,19.7695 L245,19.789 C245,20.203 244.64825,20.5 244.23425,20.5 L242,20.5 L242,21.328 C242,21.742 241.66025,22 241.2455,22 L241.24175,22 C240.82775,22 240.5,21.742 240.5,21.328 L240.5,16.828 C240.5,16.414 240.82025,16 241.23425,16 L244.23425,16 C244.64825,16 245,16.35475 245,16.7695 L245,16.7695 Z" id="file_pdf-[#1754]"></path>
                        </g>
                    </g>
                </g>
            </g>
        </g>
    </g>
</svg>