<?xml version="1.0" encoding="UTF-8"?>
<svg width="16px" height="17px" viewBox="0 0 16 17" version="1.1" xmlns="http://www.w3.org/2000/svg" xmlns:xlink="http://www.w3.org/1999/xlink">
    <!-- Generator: Sketch 52.2 (67145) - http://www.bohemiancoding.com/sketch -->
    <title>file_text_data [#1700]</title>
    <desc>Created with Sketch.</desc>
    <g id="Project-Page" stroke="none" stroke-width="1" fill="none" fill-rule="evenodd">
        <g id="Smart-contract-/-Web-version" transform="translate(-1430.000000, -1821.000000)" fill="#75A3BF">
            <g id="Main" transform="translate(453.000000, 156.000000)">
                <g id="RoadMap" transform="translate(44.000000, 943.000000)">
                    <g id="MILESTONE-#2" transform="translate(174.000000, 495.000000)">
                        <g id="Attachments" transform="translate(729.000000, 174.000000)">
                            <g id="#1" transform="translate(30.000000, 52.000000)">
                                <path d="M12.8,13.6315789 C12.8,14.0964211 12.4416,14.4736842 12,14.4736842 L4,14.4736842 C3.5584,14.4736842 3.2,14.0964211 3.2,13.6315789 C3.2,13.1667368 3.5584,12.7894737 4,12.7894737 L12,12.7894737 C12.4416,12.7894737 12.8,13.1667368 12.8,13.6315789 L12.8,13.6315789 Z M4,9.42105263 L12,9.42105263 C12.4416,9.42105263 12.8,9.79831579 12.8,10.2631579 C12.8,10.728 12.4416,11.1052632 12,11.1052632 L4,11.1052632 C3.5584,11.1052632 3.2,10.728 3.2,10.2631579 C3.2,9.79831579 3.5584,9.42105263 4,9.42105263 L4,9.42105263 Z M14.4,15.3157895 C14.4,15.7806316 14.0416,16.1578947 13.6,16.1578947 L2.4,16.1578947 C1.9584,16.1578947 1.6,15.7806316 1.6,15.3157895 L1.6,3.52631579 C1.6,3.06147368 1.9584,2.68421053 2.4,2.68421053 L9.6,2.68421053 L9.6,6.05263158 C9.6,6.98231579 10.316,7.73684211 11.2,7.73684211 L14.4,7.73684211 L14.4,15.3157895 Z M15.7656,5.80589474 L11.4344,1.24673684 C11.284,1.08842105 11.0808,1 10.8688,1 L1.6,1 C0.716,1 0,1.75368421 0,2.68421053 L0,16.1578947 C0,17.0875789 0.716,17.8421053 1.6,17.8421053 L14.4,17.8421053 C15.284,17.8421053 16,17.0875789 16,16.1578947 L16,6.40126316 C16,6.17810526 15.916,5.96421053 15.7656,5.80589474 L15.7656,5.80589474 Z" id="file_text_data-[#1700]"></path>
                            </g>
                        </g>
                    </g>
                </g>
            </g>
        </g>
    </g>
</svg>