<?xml version="1.0" encoding="utf-8"?>
<!-- Generator: Adobe Illustrator 19.2.1, SVG Export Plug-In . SVG Version: 6.00 Build 0)  -->
<svg version="1.1" id="Слой_1" xmlns="http://www.w3.org/2000/svg" xmlns:xlink="http://www.w3.org/1999/xlink" x="0px" y="0px"
	 viewBox="0 0 14 13" style="enable-background:new 0 0 14 13;" xml:space="preserve">
<style type="text/css">
	.st0{fill:#FFFFFF;}
	.st1{fill:#2A2550;}
</style>
<title>Photo</title>
<desc>Created with Sketch.</desc>
<g id="Project-Page">
	<g id="My_x5F_Profile-_x2F_-IF-status-INVESTOR-" transform="translate(-643.000000, -284.000000)">
		<g id="Profile" transform="translate(452.000000, 86.000000)">
			<g id="Block-_x23_1-General">
				<g id="Head-_x28_-Photo_x2C_-Details-_x29_" transform="translate(76.000000, 85.000000)">
					<g id="Face" transform="translate(0.000000, 1.000000)">
						<g id="Icon-Photo" transform="translate(109.000000, 106.000000)">
							<g id="Photo" transform="translate(6.782609, 6.846596)">
								<g id="Rectangle-3">
									<path class="st0" d="M1.7,2.5C1,2.5,0.4,3.1,0.4,3.8v6C0.4,10.4,1,11,1.7,11h9.1c0.7,0,1.3-0.6,1.3-1.3v-6
										c0-0.7-0.6-1.3-1.3-1.3H1.7z"/>
									<path class="st0" d="M10.8,11.4H1.7C0.8,11.4,0,10.7,0,9.7v-6c0-0.9,0.8-1.7,1.7-1.7h9.1c0.9,0,1.7,0.8,1.7,1.7v6
										C12.4,10.7,11.7,11.4,10.8,11.4z M1.7,2.9c-0.5,0-0.8,0.4-0.8,0.8v6c0,0.5,0.4,0.8,0.8,0.8h9.1c0.5,0,0.8-0.4,0.8-0.8v-6
										c0-0.5-0.4-0.8-0.8-0.8H1.7z"/>
								</g>
								<g id="Oval">
									<path class="st1" d="M6.2,9.8c-1.6,0-2.8-1.4-2.8-3c0-1.7,1.3-3,2.8-3c1.6,0,2.8,1.4,2.8,3C9,8.4,7.8,9.8,6.2,9.8z
										 M6.2,4.6c-1.1,0-2,1-2,2.2s0.9,2.2,2,2.2s2-1,2-2.2S7.3,4.6,6.2,4.6z"/>
								</g>
								<g id="Rectangle-4">
									<path class="st0" d="M4.7,0.4c-0.2,0-0.4,0.2-0.4,0.4v1.4c0,0.2,0.2,0.4,0.4,0.4h3.1c0.2,0,0.4-0.2,0.4-0.4V0.8
										c0-0.2-0.2-0.4-0.4-0.4H4.7z"/>
									<path class="st0" d="M7.8,3.1H4.7c-0.5,0-0.8-0.4-0.8-0.8V0.8C3.8,0.4,4.2,0,4.7,0h3.1c0.5,0,0.8,0.4,0.8,0.8v1.4
										C8.6,2.7,8.2,3.1,7.8,3.1z M4.7,0.8v1.4h3.1V0.8H4.7z"/>
								</g>
							</g>
						</g>
					</g>
				</g>
			</g>
		</g>
	</g>
</g>
</svg>
