<?xml version="1.0" encoding="UTF-8"?>
<svg width="14px" height="14px" viewBox="0 0 14 14" version="1.1" xmlns="http://www.w3.org/2000/svg" xmlns:xlink="http://www.w3.org/1999/xlink">
    <!-- Generator: Sketch 52.2 (67145) - http://www.bohemiancoding.com/sketch -->
    <title>link_round [#1110]</title>
    <desc>Created with Sketch.</desc>
    <g id="Project-Page" stroke="none" stroke-width="1" fill="none" fill-rule="evenodd">
        <g id="Smart-contract-/-Web-version" transform="translate(-1466.000000, -200.000000)" fill="#75A3BF">
            <g id="Main" transform="translate(453.000000, 156.000000)">
                <g id="Head" transform="translate(52.000000, 37.000000)">
                    <g id="Right" transform="translate(961.000000, 6.000000)">
                        <g id="Source-File-of-Smart-Contract">
                            <path d="M12.7671202,2.23289525 C11.1232805,0.589034917 8.45791676,0.589034917 6.81407703,2.23289525 L5.01588614,4.03110866 L6.00794307,5.02317802 L7.80613395,3.22496461 C8.90272871,2.12835611 10.6777669,2.12835611 11.7750633,3.22496461 C12.8688516,4.31946828 12.8688516,6.09943997 11.7750633,7.19394365 L9.97687238,8.99215706 L10.9689293,9.98422642 L12.7671202,8.186013 C14.4109599,6.54215267 14.4109599,3.87675558 12.7671202,2.23289525 L12.7671202,2.23289525 Z M6.19386605,12.7745092 C5.66416097,13.3049225 4.95905685,13.5967902 4.20975219,13.5967902 C3.46044752,13.5967902 2.75534341,13.3049225 2.22563833,12.7745092 C1.13114836,11.6807071 1.13114836,9.90003383 2.22563833,8.80623176 L4.02382921,7.00801834 L3.03107069,6.01524738 L1.2328798,7.81346079 C-0.410959934,9.45732112 -0.410959934,12.1227182 1.2328798,13.7672802 C2.05515047,14.5888595 3.13210053,15 4.20975219,15 C5.28740384,15 6.36435391,14.5888595 7.18662457,13.7672802 L8.98481546,11.9690667 L7.99205693,10.9762958 L6.19386605,12.7745092 Z M8.58420406,5.42379443 L9.57626099,6.41586379 L5.40527199,10.586905 L4.41321506,9.59483569 L8.58420406,5.42379443 Z" id="link_round-[#1110]"></path>
                        </g>
                    </g>
                </g>
            </g>
        </g>
    </g>
</svg>