<svg xmlns="http://www.w3.org/2000/svg" xmlns:xlink="http://www.w3.org/1999/xlink" width="15.938" height="17" viewBox="0 0 15.938 17">
  <metadata><?xpacket begin="﻿" id="W5M0MpCehiHzreSzNTczkc9d"?>
<x:xmpmeta xmlns:x="adobe:ns:meta/" x:xmptk="Adobe XMP Core 5.6-c138 79.159824, 2016/09/14-01:09:01        ">
   <rdf:RDF xmlns:rdf="http://www.w3.org/1999/02/22-rdf-syntax-ns#">
      <rdf:Description rdf:about=""/>
   </rdf:RDF>
</x:xmpmeta>
                                                                                                    
                                                                                                    
                                                                                                    
                                                                                                    
                                                                                                    
                                                                                                    
                                                                                                    
                                                                                                    
                                                                                                    
                                                                                                    
                                                                                                    
                                                                                                    
                                                                                                    
                                                                                                    
                                                                                                    
                                                                                                    
                                                                                                    
                                                                                                    
                                                                                                    
                                                                                                    
                           
<?xpacket end="w"?></metadata>
<defs>
    <style>
      .cls-1 {
        fill: #4d668e;
        fill-rule: evenodd;
        filter: url(#filter);
      }
    </style>
    <filter id="filter" x="37" y="288" width="15.938" height="17" filterUnits="userSpaceOnUse">
      <feFlood result="flood" flood-color="#fff" flood-opacity="0.5"/>
      <feComposite result="composite" operator="in" in2="SourceGraphic"/>
      <feBlend result="blend" in2="SourceGraphic"/>
    </filter>
  </defs>
  <path id="Teams" class="cls-1" d="M48.8,297.349a6.689,6.689,0,0,0,.963-3.5c0-3.228-2.142-5.844-4.785-5.844s-4.785,2.616-4.785,5.844a6.689,6.689,0,0,0,.963,3.5A6.831,6.831,0,0,0,37,303.406v0.531A1.063,1.063,0,0,0,38.063,305H51.886a1.063,1.063,0,0,0,1.063-1.063v-0.531A6.831,6.831,0,0,0,48.8,297.349Zm-3.822-7.755c1.729,0,3.19,1.946,3.19,4.25s-1.461,4.25-3.19,4.25-3.19-1.947-3.19-4.25S43.246,289.594,44.975,289.594Zm-6.38,13.812a5.338,5.338,0,0,1,3.626-4.788,4.081,4.081,0,0,0,5.507,0,5.337,5.337,0,0,1,3.626,4.788H38.595Z" transform="translate(-37 -288)"/>
</svg>
