<?xml version="1.0" encoding="UTF-8"?>
<svg width="34px" height="37px" viewBox="0 0 34 37" version="1.1" xmlns="http://www.w3.org/2000/svg" xmlns:xlink="http://www.w3.org/1999/xlink">
    <!-- Generator: Sketch 52.2 (67145) - http://www.bohemiancoding.com/sketch -->
    <title>icons8-telegram-app</title>
    <desc>Created with Sketch.</desc>
    <g id="Page-1" stroke="none" stroke-width="1" fill="none" fill-rule="evenodd">
        <g id="icons8-telegram-app">
            <rect id="Rectangle-5-Copy-2" stroke="currentColor" x="0.5" y="0.5" width="33" height="36" rx="7"></rect>
            <path d="M23.5936059,10.0015835 C23.3480579,10.0129601 23.1167865,10.0840636 22.9112118,10.1636997 L22.9083568,10.1636997 C22.6999263,10.2461798 21.7091707,10.6614256 20.2044776,11.2899819 C18.6997845,11.9213829 16.7468244,12.7404972 14.8081401,13.5539229 C10.9364824,15.177931 7.13049457,16.7763413 7.13049457,16.7763413 L7.17617785,16.7592768 C7.17617785,16.7592768 6.91349901,16.8446008 6.63939935,17.0323149 C6.49949449,17.1233276 6.34531307,17.24847 6.21111899,17.444716 C6.07692418,17.640962 5.96842603,17.9424419 6.00839926,18.2524537 C6.07406916,18.7786208 6.41669374,19.0943213 6.66224098,19.267814 C6.91064399,19.4441515 7.14762617,19.5266316 7.14762617,19.5266316 L7.15333621,19.5266316 L10.7223426,20.7240173 C10.8822341,21.2359638 11.8101755,24.2735127 12.0328811,24.9731733 C12.1642208,25.3912631 12.2927049,25.6529246 12.4525964,25.8520145 C12.5296871,25.9544038 12.6210536,26.0397286 12.729551,26.1079881 C12.7723793,26.1335852 12.8180626,26.1534944 12.8637458,26.170559 C12.8780217,26.1790916 12.8922983,26.1819356 12.9094291,26.1847795 L12.8723116,26.1762476 C12.8837325,26.1790916 12.8922983,26.1876242 12.9008633,26.1904682 C12.9294157,26.1990008 12.9494024,26.2018448 12.9865198,26.2075327 C13.55185,26.3781815 14.0058278,26.028352 14.0058278,26.028352 L14.0315244,26.0084428 L16.138666,24.097176 L19.6705541,26.7962713 L19.7504999,26.8304011 C20.4871431,27.1517895 21.2323513,26.9726088 21.6263692,26.6569083 C22.0232429,26.3383638 22.1774243,25.9316506 22.1774243,25.9316506 L22.203121,25.8662351 L24.9326968,11.9384474 C25.0097875,11.5943058 25.0297734,11.2729174 24.9441176,10.9600609 C24.8584611,10.6472051 24.6386105,10.3542577 24.3730766,10.1978295 C24.104687,10.0385572 23.8391532,9.99020692 23.5936059,10.0015835 Z M23.5193702,11.4947605 C23.5165152,11.5402669 23.525081,11.5345789 23.5050944,11.6227469 L23.5050944,11.6312796 L20.8012152,25.4140162 C20.7897944,25.4339247 20.7698078,25.4765871 20.7155595,25.5192495 C20.6584554,25.5647558 20.6127721,25.5931969 20.3757899,25.4993403 L16.0558652,22.2001298 L13.4462076,24.569304 L13.994407,21.0823802 C13.994407,21.0823802 20.7612427,14.7996597 21.0524733,14.5294655 C21.3437045,14.2592714 21.2466272,14.2023884 21.2466272,14.2023884 C21.2666138,13.8724674 20.806926,14.1056878 20.806926,14.1056878 L11.907252,19.5977351 L11.904397,19.5835145 L7.6387214,18.1529084 L7.6387214,18.1500645 C7.63586564,18.1500645 7.6301556,18.1472205 7.62730058,18.1472205 C7.6301556,18.1472205 7.65014222,18.1386879 7.65014222,18.1386879 L7.67298386,18.1273113 L7.69582549,18.1187787 C7.69582549,18.1187787 11.5046684,16.5203684 15.3763261,14.8963603 C17.3150103,14.0829346 19.2679704,13.2638203 20.7698078,12.6324193 C22.2716459,12.003863 23.3823204,11.5431108 23.4451353,11.5175137 C23.5050944,11.4947605 23.476542,11.4947605 23.5193702,11.4947605 Z" id="Shape" fill="currentColor" fill-rule="nonzero"></path>
        </g>
    </g>
</svg>