<svg xmlns="http://www.w3.org/2000/svg" xmlns:xlink="http://www.w3.org/1999/xlink" preserveAspectRatio="xMidYMid" width="9" height="12" viewBox="0 0 9 12">
  <defs>
    <style>
      .cls-1 {
        fill: #fff;
        fill-rule: evenodd;
      }
    </style>
  </defs>
  <path d="M2.497,5.459 L2.497,3.823 C2.497,2.622 3.398,1.643 4.502,1.643 C5.607,1.643 6.508,2.622 6.508,3.823 L6.508,5.459 L2.497,5.459 ZM9.014,6.276 C9.014,5.825 8.677,5.459 8.262,5.459 L8.011,5.459 L8.011,3.823 C8.011,1.728 6.429,0.008 4.502,0.008 C2.575,0.008 0.993,1.728 0.993,3.823 L0.993,5.459 L0.742,5.459 C0.327,5.459 -0.009,5.825 -0.009,6.276 L-0.009,11.183 C-0.009,11.634 0.327,12.001 0.742,12.001 L8.262,12.001 C8.677,12.001 9.014,11.634 9.014,11.183 L9.014,6.276 Z" class="cls-1"/>
</svg>
