<svg xmlns="http://www.w3.org/2000/svg" xmlns:xlink="http://www.w3.org/1999/xlink" preserveAspectRatio="xMidYMid" width="9.906" height="10.312" viewBox="0 0 9.906 10.312">
  <defs>
    <style>
      .cls-1 {
        fill: #8f8497;
        fill-rule: evenodd;
      }
    </style>
  </defs>
  <path d="M9.763,1.502 L9.764,1.500 L9.764,1.500 C9.844,1.356 9.893,1.193 9.893,1.017 C9.893,0.461 9.442,0.011 8.885,0.011 C8.563,0.011 8.280,0.164 8.096,0.399 L8.095,0.399 L8.092,0.404 C8.041,0.469 7.996,0.539 7.962,0.616 L3.771,7.477 L1.842,5.122 L1.842,5.122 C1.661,4.852 1.353,4.674 1.004,4.674 C0.447,4.674 -0.004,5.125 -0.004,5.680 C-0.004,5.963 0.113,6.217 0.301,6.400 L2.863,9.845 L2.863,9.845 C3.043,10.121 3.353,10.305 3.707,10.305 C4.128,10.305 4.487,10.048 4.638,9.683 L9.694,1.612 C9.720,1.578 9.742,1.540 9.763,1.502 Z" class="cls-1"/>
</svg>
