<svg xmlns="http://www.w3.org/2000/svg" width="15.969" height="16" viewBox="0 0 15.969 16">
  <metadata><?xpacket begin="﻿" id="W5M0MpCehiHzreSzNTczkc9d"?>
<x:xmpmeta xmlns:x="adobe:ns:meta/" x:xmptk="Adobe XMP Core 5.6-c138 79.159824, 2016/09/14-01:09:01        ">
   <rdf:RDF xmlns:rdf="http://www.w3.org/1999/02/22-rdf-syntax-ns#">
      <rdf:Description rdf:about=""/>
   </rdf:RDF>
</x:xmpmeta>
                                                                                                    
                                                                                                    
                                                                                                    
                                                                                                    
                                                                                                    
                                                                                                    
                                                                                                    
                                                                                                    
                                                                                                    
                                                                                                    
                                                                                                    
                                                                                                    
                                                                                                    
                                                                                                    
                                                                                                    
                                                                                                    
                                                                                                    
                                                                                                    
                                                                                                    
                                                                                                    
                           
<?xpacket end="w"?></metadata>
<defs>
    <style>
      .cls-1 {
        fill: #4e6790;
        fill-rule: evenodd;
      }
    </style>
  </defs>
  <path id="Feed" class="cls-1" d="M51.96,453H41.987a1,1,0,0,0-1,1v3H38a1,1,0,0,0-1,1v10a1,1,0,0,0,1,1h9.974a1,1,0,0,0,1-1v-3H51.96a1,1,0,0,0,1-1V454A1,1,0,0,0,51.96,453Zm-4.488,14.5H38.5v-9H40.99V464a1,1,0,0,0,1,1h5.486v2.5Zm3.989-4H42.486v-9h8.976v9Z" transform="translate(-37 -453)"/>
</svg>
