<svg xmlns="http://www.w3.org/2000/svg" x="0px" y="0px" width="43.75" height="28.2" viewBox="0 0 43.75 28.2"><g id="surface1"><path style=" " d="M15,0c-7.766,0,-14.063,6.297,-14.063,14.063c0.001,7.765,6.297,14.062,14.063,14.062c7.766,0,14.063,-6.297,14.063,-14.063c-0.001,-0.964,-0.106,-1.906,-0.29,-2.812l-0.078,-0.312l-13.695,0l0,4.687l9.375,0c-0.746,4.434,-4.73,7.813,-9.375,7.813c-5.18,0,-9.375,-4.196,-9.375,-9.375c0,-5.18,4.195,-9.375,9.375,-9.375c2.344,0,4.48,0.867,6.125,2.289l3.359,-3.289c-2.5,-2.29,-5.828,-3.688,-9.484,-3.688zm21.875,6.25l0,4.688l-4.688,0l0.001,3.125l4.687,0l0,4.687l3.125,0l0,-4.688l4.688,0l0,-3.125l-4.688,0l0,-4.687z"></path></g></svg>
