<svg xmlns="http://www.w3.org/2000/svg" width="17" height="17" viewBox="0 0 17 17">
  <metadata><?xpacket begin="﻿" id="W5M0MpCehiHzreSzNTczkc9d"?>
<x:xmpmeta xmlns:x="adobe:ns:meta/" x:xmptk="Adobe XMP Core 5.6-c138 79.159824, 2016/09/14-01:09:01        ">
   <rdf:RDF xmlns:rdf="http://www.w3.org/1999/02/22-rdf-syntax-ns#">
      <rdf:Description rdf:about=""/>
   </rdf:RDF>
</x:xmpmeta>





















<?xpacket end="w"?></metadata>
  <path id="Rounded_Rectangle_9" data-name="Rounded Rectangle 9" class="cls-1" d="M318.02,42.022a6.92,6.92,0,1,1,0,9.791A6.912,6.912,0,0,1,318.02,42.022Zm1.4,1.4a4.943,4.943,0,1,1,0,6.994A4.938,4.938,0,0,1,319.417,43.421Zm7.686,7.693a0.988,0.988,0,0,1,1.4,0l4.192,4.2a0.988,0.988,0,1,1-1.4,1.4l-4.193-4.2A0.989,0.989,0,0,1,327.1,51.114Z" transform="translate(-316 -40)"/>
</svg>
