<?xml version="1.0" encoding="UTF-8"?>
<svg width="25px" height="25px" viewBox="0 0 25 25" version="1.1" xmlns="http://www.w3.org/2000/svg" xmlns:xlink="http://www.w3.org/1999/xlink">
    <!-- Generator: Sketch 52.2 (67145) - http://www.bohemiancoding.com/sketch -->
    <title>LinkedIn</title>
    <desc>Created with Sketch.</desc>
    <g id="Project-Page" stroke="none" stroke-width="1" fill="none" fill-rule="evenodd">
        <g id="Project-Page-/-Main" transform="translate(-941.000000, -726.000000)">
            <g id="Block-#1-(-Head-)" transform="translate(453.000000, 257.000000)">
                <g id="Left-Block" transform="translate(48.000000, 173.000000)">
                    <g id="Info-&amp;-Social" transform="translate(0.000000, 270.000000)">
                        <g id="Social" transform="translate(2.000000, 24.000000)">
                            <g id="LinkedIn" transform="translate(438.000000, 2.000000)">
                                <path d="M18,17 L15.8,17 L15.8,13.15055 C15.8,12.09455 15.33415,11.5055 14.4987,11.5055 C13.58955,11.5055 13.05,12.1193 13.05,13.15055 L13.05,17 L10.85,17 L10.85,9.85 L13.05,9.85 L13.05,10.6541 C13.05,10.6541 13.74025,9.443 15.29565,9.443 C16.8516,9.443 18,10.3923 18,12.3569 L18,17 L18,17 Z M8.3431,8.70655 C7.60115,8.70655 7,8.10045 7,7.353 C7,6.6061 7.60115,6 8.3431,6 C9.0845,6 9.68565,6.6061 9.68565,7.353 C9.6862,8.10045 9.0845,8.70655 8.3431,8.70655 L8.3431,8.70655 Z M7,17 L9.75,17 L9.75,9.85 L7,9.85 L7,17 Z" id="linkedin-[#161]" fill="#686678"></path>
                                <rect id="Rectangle-5" stroke="#686678" x="0.5" y="0.5" width="24" height="24" rx="7"></rect>
                            </g>
                        </g>
                    </g>
                </g>
            </g>
        </g>
    </g>
</svg>