<svg xmlns="http://www.w3.org/2000/svg" width="15.969" height="16" viewBox="0 0 15.969 16">
  <metadata><?xpacket begin="﻿" id="W5M0MpCehiHzreSzNTczkc9d"?>
<x:xmpmeta xmlns:x="adobe:ns:meta/" x:xmptk="Adobe XMP Core 5.6-c138 79.159824, 2016/09/14-01:09:01        ">
   <rdf:RDF xmlns:rdf="http://www.w3.org/1999/02/22-rdf-syntax-ns#">
      <rdf:Description rdf:about=""/>
   </rdf:RDF>
</x:xmpmeta>
                                                                                                    
                                                                                                    
                                                                                                    
                                                                                                    
                                                                                                    
                                                                                                    
                                                                                                    
                                                                                                    
                                                                                                    
                                                                                                    
                                                                                                    
                                                                                                    
                                                                                                    
                                                                                                    
                                                                                                    
                                                                                                    
                                                                                                    
                                                                                                    
                                                                                                    
                                                                                                    
                           
<?xpacket end="w"?></metadata>
<defs>
    <style>
      .cls-1 {
        fill: #4d668e;
        fill-rule: evenodd;
      }
    </style>
  </defs>
  <path id="Settings" class="cls-1" d="M51.96,707H51.377a6.465,6.465,0,0,1-1.168,2.83l0.462,0.462a1,1,0,1,1-1.41,1.414l-0.462-.463a6.424,6.424,0,0,1-2.822,1.172V713a1,1,0,1,1-1.995,0v-0.585a6.431,6.431,0,0,1-2.822-1.171l-0.462.463a1,1,0,0,1-1.41-1.414l0.462-.463A6.463,6.463,0,0,1,38.581,707H38a1,1,0,0,1,0-2h0.583a6.465,6.465,0,0,1,1.168-2.829l-0.462-.464a1,1,0,1,1,1.41-1.414l0.462,0.463a6.433,6.433,0,0,1,2.822-1.171V699a1,1,0,1,1,1.995,0v0.585a6.434,6.434,0,0,1,2.822,1.171l0.462-.463a1,1,0,0,1,1.41,1.414l-0.462.463A6.465,6.465,0,0,1,51.377,705H51.96A1,1,0,0,1,51.96,707Zm-6.981-6a5,5,0,1,0,4.987,5A5,5,0,0,0,44.979,701Zm0,8a3,3,0,1,1,2.992-3A3,3,0,0,1,44.979,709Zm0-4.5a1.5,1.5,0,1,0,1.5,1.5A1.5,1.5,0,0,0,44.979,704.5Z" transform="translate(-37 -698)"/>
</svg>
