<?xml version="1.0" encoding="UTF-8"?>
<svg width="17px" height="17px" viewBox="0 0 17 17" version="1.1" xmlns="http://www.w3.org/2000/svg" xmlns:xlink="http://www.w3.org/1999/xlink">
    <!-- Generator: Sketch 52.2 (67145) - http://www.bohemiancoding.com/sketch -->
    <title>icon--search</title>
    <desc>Created with Sketch.</desc>
    <g id="Page-1" stroke="none" stroke-width="1" fill="none" fill-rule="evenodd">
        <g id="icon--search" transform="translate(-1.000000, -1.000000)" fill="#34364D">
            <path d="M3.023,3.022 C5.00361706,1.04063747 7.98281761,0.447600569 10.5712064,1.51946104 C13.1595952,2.5913215 14.847343,5.11695731 14.847343,7.9185 C14.847343,10.7200427 13.1595952,13.2456785 10.5712064,14.317539 C7.98281761,15.3893994 5.00361706,14.7963625 3.023,12.815 C0.321662826,10.1095268 0.321662826,5.72747324 3.023,3.022 Z M4.423,4.422 C6.35549043,2.49165551 9.4867583,2.4928152 11.4178184,4.42459058 C13.3488784,6.35636596 13.3488784,9.48763404 11.4178184,11.4194094 C9.4867583,13.3511848 6.35549043,13.3523445 4.423,11.422 C2.48975222,9.4888786 2.48930454,6.35467359 4.422,4.421 L4.423,4.422 Z M13.4519545,12.0650751 L17.723,16.322 C17.9773141,16.5712275 18.0781956,16.9378295 17.987195,17.2820807 C17.8961944,17.6263319 17.6273319,17.8951944 17.2830807,17.986195 C16.9388295,18.0771956 16.5722275,17.9763141 16.323,17.722 L12.0495652,13.4630898 C12.4650855,13.1996198 12.7111832,12.9126644 12.898767,12.7266333 C13.2853779,12.3400618 12.9685617,12.7266333 13.4519545,12.0650751 Z" id="Rounded_Rectangle_9"></path>
        </g>
    </g>
</svg>