<?xml version="1.0" encoding="UTF-8"?>
<svg width="22px" height="22px" viewBox="0 0 22 22" version="1.1" xmlns="http://www.w3.org/2000/svg" xmlns:xlink="http://www.w3.org/1999/xlink">
    <!-- Generator: Sketch 52.2 (67145) - http://www.bohemiancoding.com/sketch -->
    <title>star_favorite [#1499]</title>
    <desc>Created with Sketch.</desc>
    <g id="Project-Page" stroke="none" stroke-width="1" fill="none" fill-rule="evenodd">
        <g id="Project-Page-/-Main" transform="translate(-926.000000, -270.000000)" stroke="currentColor">
            <g id="Block-#1-(-Head-)" transform="translate(453.000000, 257.000000)">
                <g id="Head" transform="translate(87.000000, 0.000000)">
                    <g id="Name" transform="translate(157.000000, 5.000000)">
                        <path d="M246.720326,21.2059817 C246.293327,21.638981 246.099327,22.2629801 246.199327,22.8749792 L246.844326,26.7909733 C247.045325,28.0099715 246.115327,28.99997 245.060328,28.99997 C244.782329,28.99997 244.495329,28.9309701 244.21733,28.7789703 L240.842335,26.9299731 C240.578335,26.7859733 240.289336,26.7139734 239.999336,26.7139734 C239.710336,26.7139734 239.421337,26.7859733 239.157337,26.9299731 L235.782342,28.7789703 C235.504343,28.9309701 235.217343,28.99997 234.939344,28.99997 C233.884345,28.99997 232.954347,28.0099715 233.155346,26.7909733 L233.800345,22.8749792 C233.900345,22.2629801 233.706345,21.638981 233.279346,21.2059817 L230.54835,18.4329858 C229.474352,17.3419875 230.067351,15.4409903 231.551349,15.2159907 L235.325343,14.6449915 C235.915342,14.5559917 236.425341,14.1699922 236.688341,13.6129931 L238.376338,10.0509984 C238.708338,9.34999947 239.354337,9 239.999336,9 C240.645335,9 241.291334,9.34999947 241.623334,10.0509984 L243.311331,13.6129931 C243.574331,14.1699922 244.08433,14.5559917 244.674329,14.6449915 L248.448323,15.2159907 C249.932321,15.4409903 250.52532,17.3419875 249.451322,18.4329858 L246.720326,21.2059817 Z" id="star_favorite-[#1499]"></path>
                    </g>
                </g>
            </g>
        </g>
    </g>
</svg>