<svg height="512pt" viewBox="-79 0 512 512" width="512pt" xmlns="http://www.w3.org/2000/svg"><path d="m349.550781 273.839844-141.910156-256.285156c-6-10.832032-17.40625-17.554688-29.785156-17.554688-12.3125 0-23.667969 6.648438-29.691407 17.386719l-143.808593 256.257812c-6.601563 11.765625-5.632813 26.316407 2.464843 37.101563l140.882813 187.648437c6.433594 8.566407 16.519531 13.605469 27.226563 13.605469h5.839843c10.789063 0 20.9375-5.113281 27.355469-13.78125l25.863281-34.21875c6.636719-8.960938 4.667969-21.613281-4.378906-28.132812-8.878906-6.394532-21.25-4.46875-27.761719 4.320312l-24.007812 31.722656-101.628906-135.359375 94.839843 35.199219c2.246094.835938 4.601563 1.25 6.960938 1.25 2.355469 0 4.71875-.417969 6.964843-1.253906l90.667969-33.6875-20.792969 27.035156c-6.828124 9.214844-4.523437 22.273438 5.046876 28.59375 8.867187 5.855469 20.765624 3.753906 27.09375-4.785156l60.128906-78.304688c7.945312-10.71875 8.894531-25.085937 2.429687-36.757812zm-191.632812 50.371094-83.726563-31.074219 83.726563-31.074219zm40-62.203126 83.777343 31.128907-83.777343 31.128906zm95.347656-7.242187-95.347656-35.429687v-136.761719zm-135.347656-173.03125v137.660156l-97.574219 36.214844zm0 0"/></svg>