<?xml version="1.0" encoding="UTF-8"?>
<svg width="16px" height="21px" viewBox="0 0 16 21" version="1.1" xmlns="http://www.w3.org/2000/svg" xmlns:xlink="http://www.w3.org/1999/xlink">
    <!-- Generator: Sketch 52.2 (67145) - http://www.bohemiancoding.com/sketch -->
    <title>phone_phone [#205]</title>
    <desc>Created with Sketch.</desc>
    <g id="Symbols" stroke="none" stroke-width="1" fill="none" fill-rule="evenodd">
        <g id="Authentification" transform="translate(-27.000000, -85.000000)" fill="#75A3BF">
            <g id="Block-#2---Right-/-Accout-Information">
                <g id="Username" transform="translate(27.000000, 82.000000)">
                    <g id="Auth">
                        <path d="M13.8,3 L7.2,3 C5.9845,3 5,3.895 5,5 L5,6 C5,6.552 5.4928,7 6.1,7 C6.7072,7 7.2,6.552 7.2,6 C7.2,5.448 7.6928,5 8.3,5 L12.7,5 C13.3072,5 13.8,5.448 13.8,6 L13.8,14 C13.8,14.552 13.3072,15 12.7,15 C12.0928,15 11.6,15.448 11.6,16 C11.6,16.552 12.0928,17 12.7,17 L13.8,17 C15.0155,17 16,16.105 16,15 L16,5 C16,3.895 15.0155,3 13.8,3 M9,20.9090909 L9,11.0909091 C9,10.4887273 8.47733333,10 7.83333333,10 L3.16666667,10 C2.52266667,10 2,10.4887273 2,11.0909091 L2,20.9090909 C2,21.5112727 2.52266667,22 3.16666667,22 L7.83333333,22 C8.47733333,22 9,21.5112727 9,20.9090909 M2.2,8 L8.8,8 C10.0155,8 11,8.95466667 11,10.1333333 L11,21.8666667 C11,23.0453333 10.0155,24 8.8,24 L2.2,24 C0.9845,24 0,23.0453333 0,21.8666667 L0,10.1333333 C0,8.95466667 0.9845,8 2.2,8 M6,18 L6,18 C6,18.552 5.552,19 5,19 C4.447,19 4,18.552 4,18 C4,17.448 4.447,17 5,17 C5.552,17 6,17.448 6,18" id="phone_phone-[#205]"></path>
                    </g>
                </g>
            </g>
        </g>
    </g>
</svg>